<svg class="nc-icon glyph" xmlns="http://www.w3.org/2000/svg" xmlns:xlink="http://www.w3.org/1999/xlink" x="0px" y="0px" width="48px" height="48px" viewBox="0 0 48 48"><g><path data-color="color-2" fill="#ffffff" d="M44,5h-9.4l-1.7-3.4C32.7,1.2,32.4,1,32,1H16c-0.4,0-0.7,0.2-0.9,0.6L13.4,5H4
	C3.4,5,3,5.4,3,6v6c0,0.6,0.4,1,1,1h40c0.6,0,1-0.4,1-1V6C45,5.4,44.6,5,44,5z"></path>
<path fill="#ffffff" d="M7.3,15L11,46.1c0.1,0.5,0.5,0.9,1,0.9h24c0.5,0,0.9-0.4,1-0.9L40.7,15H7.3z M24,35c-3.9,0-7-3.1-7-7
	s3.1-7,7-7s7,3.1,7,7S27.9,35,24,35z"></path></g></svg>