<svg class="nc-icon glyph" xmlns="http://www.w3.org/2000/svg" xmlns:xlink="http://www.w3.org/1999/xlink" x="0px" y="0px" width="48px" height="48px" viewBox="0 0 48 48">
<g>
<path data-color="color-2" fill="#ffffff" d="M3,44c0,1.105,0.895,2,2,2h38c1.105,0,2-0.895,2-2V34H3V44z"></path>
<path data-color="color-2" fill="#ffffff" d="M18,4h12v4h2V3c0-0.552-0.448-1-1-1H17c-0.552,0-1,0.448-1,1v5h2V4z"></path>
<path fill="#ffffff" d="M45,10H3c-1.105,0-2,0.895-2,2v19c0,0.552,0.448,1,1,1h44c0.552,0,1-0.448,1-1V12C47,10.895,46.105,10,45,10
	z M32,25c0,0.552-0.447,1-1,1H17c-0.553,0-1-0.448-1-1v-8c0-0.552,0.447-1,1-1h14c0.553,0,1,0.448,1,1V25z"></path>
</g>
</svg>